<?xml version="1.0" encoding="UTF-8" standalone="no"?>
<!DOCTYPE svg PUBLIC "-//W3C//DTD SVG 1.1//EN"
 "http://www.w3.org/Graphics/SVG/1.1/DTD/svg11.dtd">
<!-- Generated by graphviz version 2.43.0 (0)
 -->
<!-- Title: %3 Pages: 1 -->
<svg width="118pt" height="394pt"
 viewBox="0.00 0.00 117.55 394.00" xmlns="http://www.w3.org/2000/svg" xmlns:xlink="http://www.w3.org/1999/xlink">
<g id="graph0" class="graph" transform="scale(1 1) rotate(0) translate(4 390)">
<title>%3</title>
<polygon fill="white" stroke="transparent" points="-4,4 -4,-390 113.55,-390 113.55,4 -4,4"/>
<!-- fake -->
<g id="node1" class="node">
<title>fake</title>
</g>
<!-- 0 -->
<g id="node2" class="node">
<title>0</title>
<ellipse fill="none" stroke="black" cx="30.55" cy="-295" rx="27" ry="18"/>
<text text-anchor="middle" x="30.55" y="-291.3" font-family="Times,serif" font-size="14.00">0</text>
</g>
<!-- fake&#45;&gt;0 -->
<g id="edge1" class="edge">
<title>fake&#45;&gt;0</title>
<path fill="none" stroke="black" stroke-width="2" d="M30.55,-349.81C30.55,-341.79 30.55,-332.05 30.55,-323.07"/>
<polygon fill="black" stroke="black" stroke-width="2" points="34.05,-323.03 30.55,-313.03 27.05,-323.03 34.05,-323.03"/>
</g>
<!-- 1 -->
<g id="node3" class="node">
<title>1</title>
<ellipse fill="none" stroke="black" cx="30.55" cy="-204" rx="18" ry="18"/>
<ellipse fill="none" stroke="black" cx="30.55" cy="-204" rx="22" ry="22"/>
<text text-anchor="middle" x="30.55" y="-200.3" font-family="Times,serif" font-size="14.00">1</text>
</g>
<!-- 0&#45;&gt;1 -->
<g id="edge7" class="edge">
<title>0&#45;&gt;1</title>
<path fill="none" stroke="black" d="M30.55,-276.84C30.55,-265.44 30.55,-250.13 30.55,-236.58"/>
<polygon fill="black" stroke="black" points="34.05,-236.19 30.55,-226.19 27.05,-236.19 34.05,-236.19"/>
<text text-anchor="middle" x="47.55" y="-247.8" font-family="Times,serif" font-size="14.00">True</text>
</g>
<!-- 1&#45;&gt;1 -->
<g id="edge3" class="edge">
<title>1&#45;&gt;1</title>
<path fill="none" stroke="black" d="M51.13,-212.37C61.39,-213.53 70.55,-210.74 70.55,-204 70.55,-199.68 66.79,-196.99 61.39,-195.91"/>
<polygon fill="black" stroke="black" points="61.22,-192.41 51.13,-195.63 61.03,-199.4 61.22,-192.41"/>
<text text-anchor="middle" x="82.05" y="-200.3" font-family="Times,serif" font-size="14.00">~B</text>
</g>
<!-- 2 -->
<g id="node4" class="node">
<title>2</title>
<ellipse fill="none" stroke="black" cx="30.55" cy="-109" rx="18" ry="18"/>
<ellipse fill="none" stroke="black" cx="30.55" cy="-109" rx="22" ry="22"/>
<text text-anchor="middle" x="30.55" y="-105.3" font-family="Times,serif" font-size="14.00">2</text>
</g>
<!-- 1&#45;&gt;2 -->
<g id="edge5" class="edge">
<title>1&#45;&gt;2</title>
<path fill="none" stroke="black" d="M30.55,-181.9C30.55,-169.89 30.55,-154.62 30.55,-141.24"/>
<polygon fill="black" stroke="black" points="34.05,-141.02 30.55,-131.02 27.05,-141.02 34.05,-141.02"/>
<text text-anchor="middle" x="36.05" y="-152.8" font-family="Times,serif" font-size="14.00">B</text>
</g>
<!-- 2&#45;&gt;2 -->
<g id="edge6" class="edge">
<title>2&#45;&gt;2</title>
<path fill="none" stroke="black" d="M51.13,-117.37C61.39,-118.53 70.55,-115.74 70.55,-109 70.55,-104.68 66.79,-101.99 61.39,-100.91"/>
<polygon fill="black" stroke="black" points="61.22,-97.41 51.13,-100.63 61.03,-104.4 61.22,-97.41"/>
<text text-anchor="middle" x="82.05" y="-105.3" font-family="Times,serif" font-size="14.00">~B</text>
</g>
<!-- 3 -->
<g id="node5" class="node">
<title>3</title>
<ellipse fill="none" stroke="black" cx="30.55" cy="-18" rx="27" ry="18"/>
<text text-anchor="middle" x="30.55" y="-14.3" font-family="Times,serif" font-size="14.00">3</text>
</g>
<!-- 2&#45;&gt;3 -->
<g id="edge4" class="edge">
<title>2&#45;&gt;3</title>
<path fill="none" stroke="black" d="M30.55,-86.91C30.55,-74.78 30.55,-59.41 30.55,-46.36"/>
<polygon fill="black" stroke="black" points="34.05,-46.07 30.55,-36.07 27.05,-46.07 34.05,-46.07"/>
<text text-anchor="middle" x="36.05" y="-57.8" font-family="Times,serif" font-size="14.00">B</text>
</g>
<!-- 3&#45;&gt;3 -->
<g id="edge2" class="edge">
<title>3&#45;&gt;3</title>
<path fill="none" stroke="black" d="M55.08,-25.75C66.06,-26.49 75.55,-23.91 75.55,-18 75.55,-14.03 71.26,-11.56 65.12,-10.59"/>
<polygon fill="black" stroke="black" points="65.19,-7.09 55.08,-10.25 64.95,-14.09 65.19,-7.09"/>
<text text-anchor="middle" x="92.55" y="-14.3" font-family="Times,serif" font-size="14.00">True</text>
</g>
</g>
</svg>
