<?xml version="1.0" encoding="UTF-8" standalone="no"?>
<!DOCTYPE svg PUBLIC "-//W3C//DTD SVG 1.1//EN"
 "http://www.w3.org/Graphics/SVG/1.1/DTD/svg11.dtd">
<!-- Generated by graphviz version 2.43.0 (0)
 -->
<!-- Title: %3 Pages: 1 -->
<svg width="218pt" height="307pt"
 viewBox="0.00 0.00 218.00 307.00" xmlns="http://www.w3.org/2000/svg" xmlns:xlink="http://www.w3.org/1999/xlink">
<g id="graph0" class="graph" transform="scale(1 1) rotate(0) translate(4 303)">
<title>%3</title>
<polygon fill="white" stroke="transparent" points="-4,4 -4,-303 214,-303 214,4 -4,4"/>
<!-- fake -->
<g id="node1" class="node">
<title>fake</title>
</g>
<!-- 0 -->
<g id="node2" class="node">
<title>0</title>
<ellipse fill="none" stroke="black" cx="86" cy="-208" rx="27" ry="18"/>
<text text-anchor="middle" x="86" y="-204.3" font-family="Times,serif" font-size="14.00">0</text>
</g>
<!-- fake&#45;&gt;0 -->
<g id="edge1" class="edge">
<title>fake&#45;&gt;0</title>
<path fill="none" stroke="black" stroke-width="2" d="M86,-262.81C86,-254.79 86,-245.05 86,-236.07"/>
<polygon fill="black" stroke="black" stroke-width="2" points="89.5,-236.03 86,-226.03 82.5,-236.03 89.5,-236.03"/>
</g>
<!-- 1 -->
<g id="node3" class="node">
<title>1</title>
<ellipse fill="none" stroke="black" cx="86" cy="-117" rx="18" ry="18"/>
<ellipse fill="none" stroke="black" cx="86" cy="-117" rx="22" ry="22"/>
<text text-anchor="middle" x="86" y="-113.3" font-family="Times,serif" font-size="14.00">1</text>
</g>
<!-- 0&#45;&gt;1 -->
<g id="edge2" class="edge">
<title>0&#45;&gt;1</title>
<path fill="none" stroke="black" d="M86,-189.84C86,-178.44 86,-163.13 86,-149.58"/>
<polygon fill="black" stroke="black" points="89.5,-149.19 86,-139.19 82.5,-149.19 89.5,-149.19"/>
<text text-anchor="middle" x="103" y="-160.8" font-family="Times,serif" font-size="14.00">True</text>
</g>
<!-- 1&#45;&gt;1 -->
<g id="edge6" class="edge">
<title>1&#45;&gt;1</title>
<path fill="none" stroke="black" d="M106.58,-125.37C116.84,-126.53 126,-123.74 126,-117 126,-112.68 122.24,-109.99 116.84,-108.91"/>
<polygon fill="black" stroke="black" points="116.67,-105.41 106.58,-108.63 116.48,-112.4 116.67,-105.41"/>
<text text-anchor="middle" x="159.5" y="-113.3" font-family="Times,serif" font-size="14.00">~P &amp; ~Q</text>
</g>
<!-- 2 -->
<g id="node4" class="node">
<title>2</title>
<ellipse fill="none" stroke="black" cx="22" cy="-22" rx="18" ry="18"/>
<ellipse fill="none" stroke="black" cx="22" cy="-22" rx="22" ry="22"/>
<text text-anchor="middle" x="22" y="-18.3" font-family="Times,serif" font-size="14.00">2</text>
</g>
<!-- 1&#45;&gt;2 -->
<g id="edge7" class="edge">
<title>1&#45;&gt;2</title>
<path fill="none" stroke="black" d="M64.51,-112.23C45.2,-107.59 17.95,-97.62 5,-77 -0.2,-68.72 1.2,-58.73 4.87,-49.6"/>
<polygon fill="black" stroke="black" points="8.07,-51.03 9.32,-40.51 1.78,-47.95 8.07,-51.03"/>
<text text-anchor="middle" x="32.5" y="-65.8" font-family="Times,serif" font-size="14.00">P &amp; ~Q</text>
</g>
<!-- 3 -->
<g id="node5" class="node">
<title>3</title>
<ellipse fill="none" stroke="black" cx="131" cy="-22" rx="27" ry="18"/>
<text text-anchor="middle" x="131" y="-18.3" font-family="Times,serif" font-size="14.00">3</text>
</g>
<!-- 1&#45;&gt;3 -->
<g id="edge5" class="edge">
<title>1&#45;&gt;3</title>
<path fill="none" stroke="black" d="M97.33,-98.05C101.24,-91.54 105.51,-84.04 109,-77 113.37,-68.17 117.6,-58.24 121.17,-49.33"/>
<polygon fill="black" stroke="black" points="124.5,-50.41 124.87,-39.82 117.98,-47.87 124.5,-50.41"/>
<text text-anchor="middle" x="121" y="-65.8" font-family="Times,serif" font-size="14.00">Q</text>
</g>
<!-- 2&#45;&gt;1 -->
<g id="edge3" class="edge">
<title>2&#45;&gt;1</title>
<path fill="none" stroke="black" d="M39.22,-36.01C47.56,-42.99 57.21,-52.18 64,-62 69.09,-69.36 73.28,-78.08 76.6,-86.34"/>
<polygon fill="black" stroke="black" points="73.32,-87.56 80.09,-95.71 79.88,-85.12 73.32,-87.56"/>
<text text-anchor="middle" x="82" y="-65.8" font-family="Times,serif" font-size="14.00">~P</text>
</g>
<!-- 2&#45;&gt;2 -->
<g id="edge4" class="edge">
<title>2&#45;&gt;2</title>
<path fill="none" stroke="black" d="M42.58,-30.37C52.84,-31.53 62,-28.74 62,-22 62,-17.68 58.24,-14.99 52.84,-13.91"/>
<polygon fill="black" stroke="black" points="52.67,-10.41 42.58,-13.63 52.48,-17.4 52.67,-10.41"/>
<text text-anchor="middle" x="67" y="-18.3" font-family="Times,serif" font-size="14.00">P</text>
</g>
<!-- 3&#45;&gt;3 -->
<g id="edge8" class="edge">
<title>3&#45;&gt;3</title>
<path fill="none" stroke="black" d="M155.07,-30.45C166.24,-31.38 176,-28.56 176,-22 176,-17.59 171.6,-14.88 165.32,-13.85"/>
<polygon fill="black" stroke="black" points="165.17,-10.34 155.07,-13.55 164.97,-17.34 165.17,-10.34"/>
<text text-anchor="middle" x="193" y="-18.3" font-family="Times,serif" font-size="14.00">True</text>
</g>
</g>
</svg>
