<?xml version="1.0" encoding="UTF-8" standalone="no"?>
<!DOCTYPE svg PUBLIC "-//W3C//DTD SVG 1.1//EN"
 "http://www.w3.org/Graphics/SVG/1.1/DTD/svg11.dtd">
<!-- Generated by graphviz version 2.43.0 (0)
 -->
<!-- Title: %3 Pages: 1 -->
<svg width="200pt" height="386pt"
 viewBox="0.00 0.00 199.55 386.00" xmlns="http://www.w3.org/2000/svg" xmlns:xlink="http://www.w3.org/1999/xlink">
<g id="graph0" class="graph" transform="scale(1 1) rotate(0) translate(4 382)">
<title>%3</title>
<polygon fill="white" stroke="transparent" points="-4,4 -4,-382 195.55,-382 195.55,4 -4,4"/>
<!-- fake -->
<g id="node1" class="node">
<title>fake</title>
</g>
<!-- 0 -->
<g id="node2" class="node">
<title>0</title>
<ellipse fill="none" stroke="black" cx="30.55" cy="-287" rx="27" ry="18"/>
<text text-anchor="middle" x="30.55" y="-283.3" font-family="Times,serif" font-size="14.00">0</text>
</g>
<!-- fake&#45;&gt;0 -->
<g id="edge1" class="edge">
<title>fake&#45;&gt;0</title>
<path fill="none" stroke="black" stroke-width="2" d="M30.55,-341.81C30.55,-333.79 30.55,-324.05 30.55,-315.07"/>
<polygon fill="black" stroke="black" stroke-width="2" points="34.05,-315.03 30.55,-305.03 27.05,-315.03 34.05,-315.03"/>
</g>
<!-- 1 -->
<g id="node3" class="node">
<title>1</title>
<ellipse fill="none" stroke="black" cx="30.55" cy="-196" rx="18" ry="18"/>
<ellipse fill="none" stroke="black" cx="30.55" cy="-196" rx="22" ry="22"/>
<text text-anchor="middle" x="30.55" y="-192.3" font-family="Times,serif" font-size="14.00">1</text>
</g>
<!-- 0&#45;&gt;1 -->
<g id="edge3" class="edge">
<title>0&#45;&gt;1</title>
<path fill="none" stroke="black" d="M30.55,-268.84C30.55,-257.44 30.55,-242.13 30.55,-228.58"/>
<polygon fill="black" stroke="black" points="34.05,-228.19 30.55,-218.19 27.05,-228.19 34.05,-228.19"/>
<text text-anchor="middle" x="47.55" y="-239.8" font-family="Times,serif" font-size="14.00">True</text>
</g>
<!-- 1&#45;&gt;1 -->
<g id="edge2" class="edge">
<title>1&#45;&gt;1</title>
<path fill="none" stroke="black" d="M51.13,-204.37C61.39,-205.53 70.55,-202.74 70.55,-196 70.55,-191.68 66.79,-188.99 61.39,-187.91"/>
<polygon fill="black" stroke="black" points="61.22,-184.41 51.13,-187.63 61.03,-191.4 61.22,-184.41"/>
<text text-anchor="middle" x="83.05" y="-192.3" font-family="Times,serif" font-size="14.00">~N</text>
</g>
<!-- 2 -->
<g id="node4" class="node">
<title>2</title>
<ellipse fill="none" stroke="black" cx="30.55" cy="-105" rx="27" ry="18"/>
<text text-anchor="middle" x="30.55" y="-101.3" font-family="Times,serif" font-size="14.00">2</text>
</g>
<!-- 1&#45;&gt;2 -->
<g id="edge6" class="edge">
<title>1&#45;&gt;2</title>
<path fill="none" stroke="black" d="M19.7,-176.7C14.85,-166.34 10.77,-153.07 13.55,-141 14.29,-137.77 15.37,-134.5 16.63,-131.32"/>
<polygon fill="black" stroke="black" points="19.84,-132.72 20.81,-122.17 13.47,-129.81 19.84,-132.72"/>
<text text-anchor="middle" x="20.05" y="-144.8" font-family="Times,serif" font-size="14.00">N</text>
</g>
<!-- 2&#45;&gt;1 -->
<g id="edge4" class="edge">
<title>2&#45;&gt;1</title>
<path fill="none" stroke="black" d="M30.55,-123.07C30.55,-134.61 30.55,-150.18 30.55,-163.89"/>
<polygon fill="black" stroke="black" points="27.05,-163.91 30.55,-173.91 34.05,-163.91 27.05,-163.91"/>
<text text-anchor="middle" x="59.55" y="-144.8" font-family="Times,serif" font-size="14.00">O &amp; ~N</text>
</g>
<!-- 2&#45;&gt;2 -->
<g id="edge7" class="edge">
<title>2&#45;&gt;2</title>
<path fill="none" stroke="black" d="M55.08,-112.75C66.06,-113.49 75.55,-110.91 75.55,-105 75.55,-101.03 71.26,-98.56 65.12,-97.59"/>
<polygon fill="black" stroke="black" points="65.19,-94.09 55.08,-97.25 64.95,-101.09 65.19,-94.09"/>
<text text-anchor="middle" x="98.55" y="-101.3" font-family="Times,serif" font-size="14.00">N &amp; O</text>
</g>
<!-- 3 -->
<g id="node5" class="node">
<title>3</title>
<ellipse fill="none" stroke="black" cx="30.55" cy="-18" rx="27" ry="18"/>
<text text-anchor="middle" x="30.55" y="-14.3" font-family="Times,serif" font-size="14.00">3</text>
</g>
<!-- 2&#45;&gt;3 -->
<g id="edge5" class="edge">
<title>2&#45;&gt;3</title>
<path fill="none" stroke="black" d="M30.55,-86.8C30.55,-75.16 30.55,-59.55 30.55,-46.24"/>
<polygon fill="black" stroke="black" points="34.05,-46.18 30.55,-36.18 27.05,-46.18 34.05,-46.18"/>
<text text-anchor="middle" x="111.05" y="-57.8" font-family="Times,serif" font-size="14.00">(N &amp; ~O) | (~N &amp; ~O)</text>
</g>
<!-- 3&#45;&gt;3 -->
<g id="edge8" class="edge">
<title>3&#45;&gt;3</title>
<path fill="none" stroke="black" d="M55.08,-25.75C66.06,-26.49 75.55,-23.91 75.55,-18 75.55,-14.03 71.26,-11.56 65.12,-10.59"/>
<polygon fill="black" stroke="black" points="65.19,-7.09 55.08,-10.25 64.95,-14.09 65.19,-7.09"/>
<text text-anchor="middle" x="92.55" y="-14.3" font-family="Times,serif" font-size="14.00">True</text>
</g>
</g>
</svg>
