<?xml version="1.0" encoding="UTF-8" standalone="no"?>
<!DOCTYPE svg PUBLIC "-//W3C//DTD SVG 1.1//EN"
 "http://www.w3.org/Graphics/SVG/1.1/DTD/svg11.dtd">
<!-- Generated by graphviz version 2.43.0 (0)
 -->
<!-- Title: %3 Pages: 1 -->
<svg width="113pt" height="299pt"
 viewBox="0.00 0.00 112.55 299.00" xmlns="http://www.w3.org/2000/svg" xmlns:xlink="http://www.w3.org/1999/xlink">
<g id="graph0" class="graph" transform="scale(1 1) rotate(0) translate(4 295)">
<title>%3</title>
<polygon fill="white" stroke="transparent" points="-4,4 -4,-295 108.55,-295 108.55,4 -4,4"/>
<!-- fake -->
<g id="node1" class="node">
<title>fake</title>
</g>
<!-- 0 -->
<g id="node2" class="node">
<title>0</title>
<ellipse fill="none" stroke="black" cx="30.55" cy="-200" rx="27" ry="18"/>
<text text-anchor="middle" x="30.55" y="-196.3" font-family="Times,serif" font-size="14.00">0</text>
</g>
<!-- fake&#45;&gt;0 -->
<g id="edge1" class="edge">
<title>fake&#45;&gt;0</title>
<path fill="none" stroke="black" stroke-width="2" d="M30.55,-254.81C30.55,-246.79 30.55,-237.05 30.55,-228.07"/>
<polygon fill="black" stroke="black" stroke-width="2" points="34.05,-228.03 30.55,-218.03 27.05,-228.03 34.05,-228.03"/>
</g>
<!-- 1 -->
<g id="node3" class="node">
<title>1</title>
<ellipse fill="none" stroke="black" cx="30.55" cy="-113" rx="27" ry="18"/>
<text text-anchor="middle" x="30.55" y="-109.3" font-family="Times,serif" font-size="14.00">1</text>
</g>
<!-- 0&#45;&gt;1 -->
<g id="edge2" class="edge">
<title>0&#45;&gt;1</title>
<path fill="none" stroke="black" d="M30.55,-181.8C30.55,-170.16 30.55,-154.55 30.55,-141.24"/>
<polygon fill="black" stroke="black" points="34.05,-141.18 30.55,-131.18 27.05,-141.18 34.05,-141.18"/>
<text text-anchor="middle" x="47.55" y="-152.8" font-family="Times,serif" font-size="14.00">True</text>
</g>
<!-- 1&#45;&gt;1 -->
<g id="edge4" class="edge">
<title>1&#45;&gt;1</title>
<path fill="none" stroke="black" d="M55.08,-120.75C66.06,-121.49 75.55,-118.91 75.55,-113 75.55,-109.03 71.26,-106.56 65.12,-105.59"/>
<polygon fill="black" stroke="black" points="65.19,-102.09 55.08,-105.25 64.95,-109.09 65.19,-102.09"/>
<text text-anchor="middle" x="86.55" y="-109.3" font-family="Times,serif" font-size="14.00">~A</text>
</g>
<!-- 2 -->
<g id="node4" class="node">
<title>2</title>
<ellipse fill="none" stroke="black" cx="30.55" cy="-22" rx="18" ry="18"/>
<ellipse fill="none" stroke="black" cx="30.55" cy="-22" rx="22" ry="22"/>
<text text-anchor="middle" x="30.55" y="-18.3" font-family="Times,serif" font-size="14.00">2</text>
</g>
<!-- 1&#45;&gt;2 -->
<g id="edge3" class="edge">
<title>1&#45;&gt;2</title>
<path fill="none" stroke="black" d="M30.55,-94.84C30.55,-83.44 30.55,-68.13 30.55,-54.58"/>
<polygon fill="black" stroke="black" points="34.05,-54.19 30.55,-44.19 27.05,-54.19 34.05,-54.19"/>
<text text-anchor="middle" x="35.55" y="-65.8" font-family="Times,serif" font-size="14.00">A</text>
</g>
<!-- 2&#45;&gt;2 -->
<g id="edge5" class="edge">
<title>2&#45;&gt;2</title>
<path fill="none" stroke="black" d="M51.13,-30.37C61.39,-31.53 70.55,-28.74 70.55,-22 70.55,-17.68 66.79,-14.99 61.39,-13.91"/>
<polygon fill="black" stroke="black" points="61.22,-10.41 51.13,-13.63 61.03,-17.4 61.22,-10.41"/>
<text text-anchor="middle" x="87.55" y="-18.3" font-family="Times,serif" font-size="14.00">True</text>
</g>
</g>
</svg>
