<?xml version="1.0" encoding="UTF-8" standalone="no"?>
<!DOCTYPE svg PUBLIC "-//W3C//DTD SVG 1.1//EN"
 "http://www.w3.org/Graphics/SVG/1.1/DTD/svg11.dtd">
<!-- Generated by graphviz version 2.43.0 (0)
 -->
<!-- Title: %3 Pages: 1 -->
<svg width="251pt" height="394pt"
 viewBox="0.00 0.00 251.00 394.00" xmlns="http://www.w3.org/2000/svg" xmlns:xlink="http://www.w3.org/1999/xlink">
<g id="graph0" class="graph" transform="scale(1 1) rotate(0) translate(4 390)">
<title>%3</title>
<polygon fill="white" stroke="transparent" points="-4,4 -4,-390 247,-390 247,4 -4,4"/>
<!-- fake -->
<g id="node1" class="node">
<title>fake</title>
</g>
<!-- 0 -->
<g id="node2" class="node">
<title>0</title>
<ellipse fill="none" stroke="black" cx="124" cy="-295" rx="27" ry="18"/>
<text text-anchor="middle" x="124" y="-291.3" font-family="Times,serif" font-size="14.00">0</text>
</g>
<!-- fake&#45;&gt;0 -->
<g id="edge1" class="edge">
<title>fake&#45;&gt;0</title>
<path fill="none" stroke="black" stroke-width="2" d="M124,-349.81C124,-341.79 124,-332.05 124,-323.07"/>
<polygon fill="black" stroke="black" stroke-width="2" points="127.5,-323.03 124,-313.03 120.5,-323.03 127.5,-323.03"/>
</g>
<!-- 1 -->
<g id="node3" class="node">
<title>1</title>
<ellipse fill="none" stroke="black" cx="124" cy="-204" rx="18" ry="18"/>
<ellipse fill="none" stroke="black" cx="124" cy="-204" rx="22" ry="22"/>
<text text-anchor="middle" x="124" y="-200.3" font-family="Times,serif" font-size="14.00">1</text>
</g>
<!-- 0&#45;&gt;1 -->
<g id="edge2" class="edge">
<title>0&#45;&gt;1</title>
<path fill="none" stroke="black" d="M124,-276.84C124,-265.44 124,-250.13 124,-236.58"/>
<polygon fill="black" stroke="black" points="127.5,-236.19 124,-226.19 120.5,-236.19 127.5,-236.19"/>
<text text-anchor="middle" x="141" y="-247.8" font-family="Times,serif" font-size="14.00">True</text>
</g>
<!-- 1&#45;&gt;1 -->
<g id="edge3" class="edge">
<title>1&#45;&gt;1</title>
<path fill="none" stroke="black" d="M144.58,-212.37C154.84,-213.53 164,-210.74 164,-204 164,-199.68 160.24,-196.99 154.84,-195.91"/>
<polygon fill="black" stroke="black" points="154.67,-192.41 144.58,-195.63 154.48,-199.4 154.67,-192.41"/>
<text text-anchor="middle" x="196.5" y="-200.3" font-family="Times,serif" font-size="14.00">~S &amp; ~T</text>
</g>
<!-- 2 -->
<g id="node4" class="node">
<title>2</title>
<ellipse fill="none" stroke="black" cx="22" cy="-109" rx="18" ry="18"/>
<ellipse fill="none" stroke="black" cx="22" cy="-109" rx="22" ry="22"/>
<text text-anchor="middle" x="22" y="-105.3" font-family="Times,serif" font-size="14.00">2</text>
</g>
<!-- 1&#45;&gt;2 -->
<g id="edge11" class="edge">
<title>1&#45;&gt;2</title>
<path fill="none" stroke="black" d="M105.34,-192.07C93.72,-184.84 78.8,-174.73 67,-164 57.64,-155.49 48.49,-145.02 40.9,-135.57"/>
<polygon fill="black" stroke="black" points="43.59,-133.33 34.68,-127.61 38.08,-137.64 43.59,-133.33"/>
<text text-anchor="middle" x="93.5" y="-152.8" font-family="Times,serif" font-size="14.00">T &amp; ~S</text>
</g>
<!-- 3 -->
<g id="node5" class="node">
<title>3</title>
<ellipse fill="none" stroke="black" cx="124" cy="-109" rx="18" ry="18"/>
<ellipse fill="none" stroke="black" cx="124" cy="-109" rx="22" ry="22"/>
<text text-anchor="middle" x="124" y="-105.3" font-family="Times,serif" font-size="14.00">3</text>
</g>
<!-- 1&#45;&gt;3 -->
<g id="edge10" class="edge">
<title>1&#45;&gt;3</title>
<path fill="none" stroke="black" d="M124,-181.9C124,-169.89 124,-154.62 124,-141.24"/>
<polygon fill="black" stroke="black" points="127.5,-141.02 124,-131.02 120.5,-141.02 127.5,-141.02"/>
<text text-anchor="middle" x="150.5" y="-152.8" font-family="Times,serif" font-size="14.00">S &amp; ~T</text>
</g>
<!-- 4 -->
<g id="node6" class="node">
<title>4</title>
<ellipse fill="none" stroke="black" cx="124" cy="-18" rx="27" ry="18"/>
<text text-anchor="middle" x="124" y="-14.3" font-family="Times,serif" font-size="14.00">4</text>
</g>
<!-- 1&#45;&gt;4 -->
<g id="edge9" class="edge">
<title>1&#45;&gt;4</title>
<path fill="none" stroke="black" d="M143.56,-193.34C155.68,-186.54 170.82,-176.43 181,-164 203.03,-137.08 208.66,-118.99 195,-87 186.18,-66.34 167.66,-48.95 151.75,-36.93"/>
<polygon fill="black" stroke="black" points="153.41,-33.81 143.25,-30.81 149.32,-39.49 153.41,-33.81"/>
<text text-anchor="middle" x="222.5" y="-105.3" font-family="Times,serif" font-size="14.00">S &amp; T</text>
</g>
<!-- 2&#45;&gt;2 -->
<g id="edge8" class="edge">
<title>2&#45;&gt;2</title>
<path fill="none" stroke="black" d="M42.58,-117.37C52.84,-118.53 62,-115.74 62,-109 62,-104.68 58.24,-101.99 52.84,-100.91"/>
<polygon fill="black" stroke="black" points="52.67,-97.41 42.58,-100.63 52.48,-104.4 52.67,-97.41"/>
<text text-anchor="middle" x="73" y="-105.3" font-family="Times,serif" font-size="14.00">~S</text>
</g>
<!-- 2&#45;&gt;4 -->
<g id="edge6" class="edge">
<title>2&#45;&gt;4</title>
<path fill="none" stroke="black" d="M38.39,-93.7C55.24,-79 81.64,-55.96 100.67,-39.36"/>
<polygon fill="black" stroke="black" points="103.09,-41.89 108.32,-32.68 98.49,-36.62 103.09,-41.89"/>
<text text-anchor="middle" x="87" y="-57.8" font-family="Times,serif" font-size="14.00">S</text>
</g>
<!-- 3&#45;&gt;3 -->
<g id="edge4" class="edge">
<title>3&#45;&gt;3</title>
<path fill="none" stroke="black" d="M144.58,-117.37C154.84,-118.53 164,-115.74 164,-109 164,-104.68 160.24,-101.99 154.84,-100.91"/>
<polygon fill="black" stroke="black" points="154.67,-97.41 144.58,-100.63 154.48,-104.4 154.67,-97.41"/>
<text text-anchor="middle" x="175" y="-105.3" font-family="Times,serif" font-size="14.00">~T</text>
</g>
<!-- 3&#45;&gt;4 -->
<g id="edge5" class="edge">
<title>3&#45;&gt;4</title>
<path fill="none" stroke="black" d="M124,-86.91C124,-74.78 124,-59.41 124,-46.36"/>
<polygon fill="black" stroke="black" points="127.5,-46.07 124,-36.07 120.5,-46.07 127.5,-46.07"/>
<text text-anchor="middle" x="129" y="-57.8" font-family="Times,serif" font-size="14.00">T</text>
</g>
<!-- 4&#45;&gt;4 -->
<g id="edge7" class="edge">
<title>4&#45;&gt;4</title>
<path fill="none" stroke="black" d="M148.53,-25.75C159.51,-26.49 169,-23.91 169,-18 169,-14.03 164.72,-11.56 158.57,-10.59"/>
<polygon fill="black" stroke="black" points="158.65,-7.09 148.53,-10.25 158.41,-14.09 158.65,-7.09"/>
<text text-anchor="middle" x="186" y="-14.3" font-family="Times,serif" font-size="14.00">True</text>
</g>
</g>
</svg>
