<?xml version="1.0" encoding="UTF-8" standalone="no"?>
<!DOCTYPE svg PUBLIC "-//W3C//DTD SVG 1.1//EN"
 "http://www.w3.org/Graphics/SVG/1.1/DTD/svg11.dtd">
<!-- Generated by graphviz version 2.43.0 (0)
 -->
<!-- Title: %3 Pages: 1 -->
<svg width="320pt" height="481pt"
 viewBox="0.00 0.00 320.00 481.00" xmlns="http://www.w3.org/2000/svg" xmlns:xlink="http://www.w3.org/1999/xlink">
<g id="graph0" class="graph" transform="scale(1 1) rotate(0) translate(4 477)">
<title>%3</title>
<polygon fill="white" stroke="transparent" points="-4,4 -4,-477 316,-477 316,4 -4,4"/>
<!-- fake -->
<g id="node1" class="node">
<title>fake</title>
</g>
<!-- 0 -->
<g id="node2" class="node">
<title>0</title>
<ellipse fill="none" stroke="black" cx="174" cy="-382" rx="27" ry="18"/>
<text text-anchor="middle" x="174" y="-378.3" font-family="Times,serif" font-size="14.00">0</text>
</g>
<!-- fake&#45;&gt;0 -->
<g id="edge1" class="edge">
<title>fake&#45;&gt;0</title>
<path fill="none" stroke="black" stroke-width="2" d="M174,-436.81C174,-428.79 174,-419.05 174,-410.07"/>
<polygon fill="black" stroke="black" stroke-width="2" points="177.5,-410.03 174,-400.03 170.5,-410.03 177.5,-410.03"/>
</g>
<!-- 1 -->
<g id="node3" class="node">
<title>1</title>
<ellipse fill="none" stroke="black" cx="174" cy="-291" rx="18" ry="18"/>
<ellipse fill="none" stroke="black" cx="174" cy="-291" rx="22" ry="22"/>
<text text-anchor="middle" x="174" y="-287.3" font-family="Times,serif" font-size="14.00">1</text>
</g>
<!-- 0&#45;&gt;1 -->
<g id="edge11" class="edge">
<title>0&#45;&gt;1</title>
<path fill="none" stroke="black" d="M174,-363.84C174,-352.44 174,-337.13 174,-323.58"/>
<polygon fill="black" stroke="black" points="177.5,-323.19 174,-313.19 170.5,-323.19 177.5,-323.19"/>
<text text-anchor="middle" x="191" y="-334.8" font-family="Times,serif" font-size="14.00">True</text>
</g>
<!-- 2 -->
<g id="node4" class="node">
<title>2</title>
<ellipse fill="none" stroke="black" cx="98" cy="-200" rx="27" ry="18"/>
<text text-anchor="middle" x="98" y="-196.3" font-family="Times,serif" font-size="14.00">2</text>
</g>
<!-- 1&#45;&gt;2 -->
<g id="edge10" class="edge">
<title>1&#45;&gt;2</title>
<path fill="none" stroke="black" d="M160.06,-273.68C148.09,-259.66 130.71,-239.31 117.39,-223.7"/>
<polygon fill="black" stroke="black" points="119.99,-221.37 110.84,-216.03 114.67,-225.91 119.99,-221.37"/>
<text text-anchor="middle" x="151" y="-239.8" font-family="Times,serif" font-size="14.00">~V</text>
</g>
<!-- 3 -->
<g id="node5" class="node">
<title>3</title>
<ellipse fill="none" stroke="black" cx="214" cy="-109" rx="18" ry="18"/>
<ellipse fill="none" stroke="black" cx="214" cy="-109" rx="22" ry="22"/>
<text text-anchor="middle" x="214" y="-105.3" font-family="Times,serif" font-size="14.00">3</text>
</g>
<!-- 1&#45;&gt;3 -->
<g id="edge7" class="edge">
<title>1&#45;&gt;3</title>
<path fill="none" stroke="black" d="M185.27,-271.67C199.06,-247.89 221.4,-204.64 228,-164 229.33,-155.8 228.2,-147.03 226.1,-139"/>
<polygon fill="black" stroke="black" points="229.39,-137.79 223.05,-129.31 222.72,-139.9 229.39,-137.79"/>
<text text-anchor="middle" x="229" y="-196.3" font-family="Times,serif" font-size="14.00">V</text>
</g>
<!-- 2&#45;&gt;2 -->
<g id="edge8" class="edge">
<title>2&#45;&gt;2</title>
<path fill="none" stroke="black" d="M122.53,-207.75C133.51,-208.49 143,-205.91 143,-200 143,-196.03 138.72,-193.56 132.57,-192.59"/>
<polygon fill="black" stroke="black" points="132.65,-189.09 122.53,-192.25 132.41,-196.09 132.65,-189.09"/>
<text text-anchor="middle" x="172" y="-196.3" font-family="Times,serif" font-size="14.00">W &amp; ~V</text>
</g>
<!-- 2&#45;&gt;3 -->
<g id="edge6" class="edge">
<title>2&#45;&gt;3</title>
<path fill="none" stroke="black" d="M119.65,-188.93C132.26,-182.59 148.16,-173.78 161,-164 172.54,-155.21 183.99,-143.95 193.28,-133.99"/>
<polygon fill="black" stroke="black" points="196.09,-136.1 200.23,-126.35 190.91,-131.39 196.09,-136.1"/>
<text text-anchor="middle" x="201" y="-152.8" font-family="Times,serif" font-size="14.00">V &amp; W</text>
</g>
<!-- 4 -->
<g id="node6" class="node">
<title>4</title>
<ellipse fill="none" stroke="black" cx="27" cy="-18" rx="27" ry="18"/>
<text text-anchor="middle" x="27" y="-14.3" font-family="Times,serif" font-size="14.00">4</text>
</g>
<!-- 2&#45;&gt;4 -->
<g id="edge2" class="edge">
<title>2&#45;&gt;4</title>
<path fill="none" stroke="black" d="M77.63,-188.09C58.71,-176.68 31.75,-156.84 20,-131 7.63,-103.81 12.59,-69.02 18.56,-45.48"/>
<polygon fill="black" stroke="black" points="21.93,-46.4 21.22,-35.83 15.18,-44.54 21.93,-46.4"/>
<text text-anchor="middle" x="101.5" y="-105.3" font-family="Times,serif" font-size="14.00">(V &amp; ~W) | (~V &amp; ~W)</text>
</g>
<!-- 3&#45;&gt;2 -->
<g id="edge4" class="edge">
<title>3&#45;&gt;2</title>
<path fill="none" stroke="black" d="M195.89,-122.1C190.34,-125.38 184.08,-128.67 178,-131 141.13,-145.13 115.93,-118.38 91,-149 85.65,-155.57 85.34,-164.31 87.02,-172.64"/>
<polygon fill="black" stroke="black" points="83.72,-173.81 89.87,-182.43 90.44,-171.85 83.72,-173.81"/>
<text text-anchor="middle" x="126" y="-152.8" font-family="Times,serif" font-size="14.00">~V &amp; ~W</text>
</g>
<!-- 3&#45;&gt;3 -->
<g id="edge9" class="edge">
<title>3&#45;&gt;3</title>
<path fill="none" stroke="black" d="M234.58,-117.37C244.84,-118.53 254,-115.74 254,-109 254,-104.68 250.24,-101.99 244.84,-100.91"/>
<polygon fill="black" stroke="black" points="244.67,-97.41 234.58,-100.63 244.48,-104.4 244.67,-97.41"/>
<text text-anchor="middle" x="283" y="-105.3" font-family="Times,serif" font-size="14.00">V &amp; ~W</text>
</g>
<!-- 3&#45;&gt;4 -->
<g id="edge5" class="edge">
<title>3&#45;&gt;4</title>
<path fill="none" stroke="black" d="M195.52,-96.72C189.96,-93.46 183.79,-89.98 178,-87 137.64,-66.21 89.62,-45.2 58.74,-32.14"/>
<polygon fill="black" stroke="black" points="59.93,-28.85 49.35,-28.2 57.21,-35.3 59.93,-28.85"/>
<text text-anchor="middle" x="210.5" y="-57.8" font-family="Times,serif" font-size="14.00">(V &amp; W) | (W &amp; ~V)</text>
</g>
<!-- 4&#45;&gt;4 -->
<g id="edge3" class="edge">
<title>4&#45;&gt;4</title>
<path fill="none" stroke="black" d="M51.53,-25.75C62.51,-26.49 72,-23.91 72,-18 72,-14.03 67.72,-11.56 61.57,-10.59"/>
<polygon fill="black" stroke="black" points="61.65,-7.09 51.53,-10.25 61.41,-14.09 61.65,-7.09"/>
<text text-anchor="middle" x="89" y="-14.3" font-family="Times,serif" font-size="14.00">True</text>
</g>
</g>
</svg>
