<?xml version="1.0" encoding="UTF-8" standalone="no"?>
<!DOCTYPE svg PUBLIC "-//W3C//DTD SVG 1.1//EN"
 "http://www.w3.org/Graphics/SVG/1.1/DTD/svg11.dtd">
<!-- Generated by graphviz version 2.43.0 (0)
 -->
<!-- Title: %3 Pages: 1 -->
<svg width="160pt" height="394pt"
 viewBox="0.00 0.00 160.00 394.00" xmlns="http://www.w3.org/2000/svg" xmlns:xlink="http://www.w3.org/1999/xlink">
<g id="graph0" class="graph" transform="scale(1 1) rotate(0) translate(4 390)">
<title>%3</title>
<polygon fill="white" stroke="transparent" points="-4,4 -4,-390 156,-390 156,4 -4,4"/>
<!-- fake -->
<g id="node1" class="node">
<title>fake</title>
</g>
<!-- 0 -->
<g id="node2" class="node">
<title>0</title>
<ellipse fill="none" stroke="black" cx="87" cy="-295" rx="27" ry="18"/>
<text text-anchor="middle" x="87" y="-291.3" font-family="Times,serif" font-size="14.00">0</text>
</g>
<!-- fake&#45;&gt;0 -->
<g id="edge1" class="edge">
<title>fake&#45;&gt;0</title>
<path fill="none" stroke="black" stroke-width="2" d="M87,-349.81C87,-341.79 87,-332.05 87,-323.07"/>
<polygon fill="black" stroke="black" stroke-width="2" points="90.5,-323.03 87,-313.03 83.5,-323.03 90.5,-323.03"/>
</g>
<!-- 1 -->
<g id="node3" class="node">
<title>1</title>
<ellipse fill="none" stroke="black" cx="87" cy="-204" rx="18" ry="18"/>
<ellipse fill="none" stroke="black" cx="87" cy="-204" rx="22" ry="22"/>
<text text-anchor="middle" x="87" y="-200.3" font-family="Times,serif" font-size="14.00">1</text>
</g>
<!-- 0&#45;&gt;1 -->
<g id="edge2" class="edge">
<title>0&#45;&gt;1</title>
<path fill="none" stroke="black" d="M87,-276.84C87,-265.44 87,-250.13 87,-236.58"/>
<polygon fill="black" stroke="black" points="90.5,-236.19 87,-226.19 83.5,-236.19 90.5,-236.19"/>
<text text-anchor="middle" x="104" y="-247.8" font-family="Times,serif" font-size="14.00">True</text>
</g>
<!-- 1&#45;&gt;1 -->
<g id="edge4" class="edge">
<title>1&#45;&gt;1</title>
<path fill="none" stroke="black" d="M107.58,-212.37C117.84,-213.53 127,-210.74 127,-204 127,-199.68 123.24,-196.99 117.84,-195.91"/>
<polygon fill="black" stroke="black" points="117.67,-192.41 107.58,-195.63 117.48,-199.4 117.67,-192.41"/>
<text text-anchor="middle" x="138" y="-200.3" font-family="Times,serif" font-size="14.00">~T</text>
</g>
<!-- 2 -->
<g id="node4" class="node">
<title>2</title>
<ellipse fill="none" stroke="black" cx="22" cy="-109" rx="18" ry="18"/>
<ellipse fill="none" stroke="black" cx="22" cy="-109" rx="22" ry="22"/>
<text text-anchor="middle" x="22" y="-105.3" font-family="Times,serif" font-size="14.00">2</text>
</g>
<!-- 1&#45;&gt;2 -->
<g id="edge3" class="edge">
<title>1&#45;&gt;2</title>
<path fill="none" stroke="black" d="M72.56,-187.17C66.55,-180.27 59.66,-171.95 54,-164 48.04,-155.63 42.14,-146.11 37.05,-137.41"/>
<polygon fill="black" stroke="black" points="40.08,-135.66 32.07,-128.73 34.01,-139.14 40.08,-135.66"/>
<text text-anchor="middle" x="81.5" y="-152.8" font-family="Times,serif" font-size="14.00">T &amp; ~U</text>
</g>
<!-- 3 -->
<g id="node5" class="node">
<title>3</title>
<ellipse fill="none" stroke="black" cx="73" cy="-18" rx="27" ry="18"/>
<text text-anchor="middle" x="73" y="-14.3" font-family="Times,serif" font-size="14.00">3</text>
</g>
<!-- 1&#45;&gt;3 -->
<g id="edge5" class="edge">
<title>1&#45;&gt;3</title>
<path fill="none" stroke="black" d="M99.35,-185.58C103.24,-179.11 107.03,-171.52 109,-164 110.69,-157.55 109.69,-155.63 109,-149 105.16,-111.98 92.22,-70.83 82.95,-44.94"/>
<polygon fill="black" stroke="black" points="86.21,-43.67 79.48,-35.48 79.64,-46.08 86.21,-43.67"/>
<text text-anchor="middle" x="127.5" y="-105.3" font-family="Times,serif" font-size="14.00">T &amp; U</text>
</g>
<!-- 2&#45;&gt;2 -->
<g id="edge8" class="edge">
<title>2&#45;&gt;2</title>
<path fill="none" stroke="black" d="M42.58,-117.37C52.84,-118.53 62,-115.74 62,-109 62,-104.68 58.24,-101.99 52.84,-100.91"/>
<polygon fill="black" stroke="black" points="52.67,-97.41 42.58,-100.63 52.48,-104.4 52.67,-97.41"/>
<text text-anchor="middle" x="74.5" y="-105.3" font-family="Times,serif" font-size="14.00">~U</text>
</g>
<!-- 2&#45;&gt;3 -->
<g id="edge6" class="edge">
<title>2&#45;&gt;3</title>
<path fill="none" stroke="black" d="M32.57,-89.56C40.13,-76.36 50.4,-58.44 58.7,-43.96"/>
<polygon fill="black" stroke="black" points="61.88,-45.45 63.81,-35.03 55.81,-41.97 61.88,-45.45"/>
<text text-anchor="middle" x="59.5" y="-57.8" font-family="Times,serif" font-size="14.00">U</text>
</g>
<!-- 3&#45;&gt;3 -->
<g id="edge7" class="edge">
<title>3&#45;&gt;3</title>
<path fill="none" stroke="black" d="M97.53,-25.75C108.51,-26.49 118,-23.91 118,-18 118,-14.03 113.72,-11.56 107.57,-10.59"/>
<polygon fill="black" stroke="black" points="107.65,-7.09 97.53,-10.25 107.41,-14.09 107.65,-7.09"/>
<text text-anchor="middle" x="135" y="-14.3" font-family="Times,serif" font-size="14.00">True</text>
</g>
</g>
</svg>
