<?xml version="1.0" encoding="UTF-8" standalone="no"?>
<!DOCTYPE svg PUBLIC "-//W3C//DTD SVG 1.1//EN"
 "http://www.w3.org/Graphics/SVG/1.1/DTD/svg11.dtd">
<!-- Generated by graphviz version 2.43.0 (0)
 -->
<!-- Title: %3 Pages: 1 -->
<svg width="244pt" height="307pt"
 viewBox="0.00 0.00 244.00 307.00" xmlns="http://www.w3.org/2000/svg" xmlns:xlink="http://www.w3.org/1999/xlink">
<g id="graph0" class="graph" transform="scale(1 1) rotate(0) translate(4 303)">
<title>%3</title>
<polygon fill="white" stroke="transparent" points="-4,4 -4,-303 240,-303 240,4 -4,4"/>
<!-- fake -->
<g id="node1" class="node">
<title>fake</title>
</g>
<!-- 0 -->
<g id="node2" class="node">
<title>0</title>
<ellipse fill="none" stroke="black" cx="89" cy="-208" rx="27" ry="18"/>
<text text-anchor="middle" x="89" y="-204.3" font-family="Times,serif" font-size="14.00">0</text>
</g>
<!-- fake&#45;&gt;0 -->
<g id="edge1" class="edge">
<title>fake&#45;&gt;0</title>
<path fill="none" stroke="black" stroke-width="2" d="M89,-262.81C89,-254.79 89,-245.05 89,-236.07"/>
<polygon fill="black" stroke="black" stroke-width="2" points="92.5,-236.03 89,-226.03 85.5,-236.03 92.5,-236.03"/>
</g>
<!-- 1 -->
<g id="node3" class="node">
<title>1</title>
<ellipse fill="none" stroke="black" cx="89" cy="-117" rx="18" ry="18"/>
<ellipse fill="none" stroke="black" cx="89" cy="-117" rx="22" ry="22"/>
<text text-anchor="middle" x="89" y="-113.3" font-family="Times,serif" font-size="14.00">1</text>
</g>
<!-- 0&#45;&gt;1 -->
<g id="edge7" class="edge">
<title>0&#45;&gt;1</title>
<path fill="none" stroke="black" d="M89,-189.84C89,-178.44 89,-163.13 89,-149.58"/>
<polygon fill="black" stroke="black" points="92.5,-149.19 89,-139.19 85.5,-149.19 92.5,-149.19"/>
<text text-anchor="middle" x="106" y="-160.8" font-family="Times,serif" font-size="14.00">True</text>
</g>
<!-- 1&#45;&gt;1 -->
<g id="edge2" class="edge">
<title>1&#45;&gt;1</title>
<path fill="none" stroke="black" d="M109.58,-125.37C119.84,-126.53 129,-123.74 129,-117 129,-112.68 125.24,-109.99 119.84,-108.91"/>
<polygon fill="black" stroke="black" points="119.67,-105.41 109.58,-108.63 119.48,-112.4 119.67,-105.41"/>
<text text-anchor="middle" x="157.5" y="-113.3" font-family="Times,serif" font-size="14.00">~I &amp; ~J</text>
</g>
<!-- 2 -->
<g id="node4" class="node">
<title>2</title>
<ellipse fill="none" stroke="black" cx="22" cy="-22" rx="18" ry="18"/>
<ellipse fill="none" stroke="black" cx="22" cy="-22" rx="22" ry="22"/>
<text text-anchor="middle" x="22" y="-18.3" font-family="Times,serif" font-size="14.00">2</text>
</g>
<!-- 1&#45;&gt;2 -->
<g id="edge3" class="edge">
<title>1&#45;&gt;2</title>
<path fill="none" stroke="black" d="M68.02,-109.77C52.6,-103.97 32.72,-93.67 23,-77 18.99,-70.13 17.53,-61.88 17.37,-53.93"/>
<polygon fill="black" stroke="black" points="20.87,-53.91 17.8,-43.77 13.88,-53.62 20.87,-53.91"/>
<text text-anchor="middle" x="79" y="-65.8" font-family="Times,serif" font-size="14.00">(I &amp; J) | (I &amp; ~J)</text>
</g>
<!-- 3 -->
<g id="node5" class="node">
<title>3</title>
<ellipse fill="none" stroke="black" cx="157" cy="-22" rx="27" ry="18"/>
<text text-anchor="middle" x="157" y="-18.3" font-family="Times,serif" font-size="14.00">3</text>
</g>
<!-- 1&#45;&gt;3 -->
<g id="edge6" class="edge">
<title>1&#45;&gt;3</title>
<path fill="none" stroke="black" d="M107,-103.97C116.35,-96.99 127.38,-87.51 135,-77 140.93,-68.81 145.59,-58.8 149.05,-49.62"/>
<polygon fill="black" stroke="black" points="152.38,-50.72 152.36,-40.12 145.77,-48.42 152.38,-50.72"/>
<text text-anchor="middle" x="165.5" y="-65.8" font-family="Times,serif" font-size="14.00">J &amp; ~I</text>
</g>
<!-- 2&#45;&gt;2 -->
<g id="edge5" class="edge">
<title>2&#45;&gt;2</title>
<path fill="none" stroke="black" d="M42.58,-30.37C52.84,-31.53 62,-28.74 62,-22 62,-17.68 58.24,-14.99 52.84,-13.91"/>
<polygon fill="black" stroke="black" points="52.67,-10.41 42.58,-13.63 52.48,-17.4 52.67,-10.41"/>
<text text-anchor="middle" x="79" y="-18.3" font-family="Times,serif" font-size="14.00">True</text>
</g>
<!-- 3&#45;&gt;3 -->
<g id="edge4" class="edge">
<title>3&#45;&gt;3</title>
<path fill="none" stroke="black" d="M181.07,-30.45C192.24,-31.38 202,-28.56 202,-22 202,-17.59 197.6,-14.88 191.32,-13.85"/>
<polygon fill="black" stroke="black" points="191.17,-10.34 181.07,-13.55 190.97,-17.34 191.17,-10.34"/>
<text text-anchor="middle" x="219" y="-18.3" font-family="Times,serif" font-size="14.00">True</text>
</g>
</g>
</svg>
