<?xml version="1.0" encoding="UTF-8" standalone="no"?>
<!DOCTYPE svg PUBLIC "-//W3C//DTD SVG 1.1//EN"
 "http://www.w3.org/Graphics/SVG/1.1/DTD/svg11.dtd">
<!-- Generated by graphviz version 2.43.0 (0)
 -->
<!-- Title: %3 Pages: 1 -->
<svg width="257pt" height="394pt"
 viewBox="0.00 0.00 257.00 394.00" xmlns="http://www.w3.org/2000/svg" xmlns:xlink="http://www.w3.org/1999/xlink">
<g id="graph0" class="graph" transform="scale(1 1) rotate(0) translate(4 390)">
<title>%3</title>
<polygon fill="white" stroke="transparent" points="-4,4 -4,-390 253,-390 253,4 -4,4"/>
<!-- fake -->
<g id="node1" class="node">
<title>fake</title>
</g>
<!-- 0 -->
<g id="node2" class="node">
<title>0</title>
<ellipse fill="none" stroke="black" cx="58" cy="-295" rx="27" ry="18"/>
<text text-anchor="middle" x="58" y="-291.3" font-family="Times,serif" font-size="14.00">0</text>
</g>
<!-- fake&#45;&gt;0 -->
<g id="edge1" class="edge">
<title>fake&#45;&gt;0</title>
<path fill="none" stroke="black" stroke-width="2" d="M58,-349.81C58,-341.79 58,-332.05 58,-323.07"/>
<polygon fill="black" stroke="black" stroke-width="2" points="61.5,-323.03 58,-313.03 54.5,-323.03 61.5,-323.03"/>
</g>
<!-- 1 -->
<g id="node3" class="node">
<title>1</title>
<ellipse fill="none" stroke="black" cx="58" cy="-204" rx="18" ry="18"/>
<ellipse fill="none" stroke="black" cx="58" cy="-204" rx="22" ry="22"/>
<text text-anchor="middle" x="58" y="-200.3" font-family="Times,serif" font-size="14.00">1</text>
</g>
<!-- 0&#45;&gt;1 -->
<g id="edge2" class="edge">
<title>0&#45;&gt;1</title>
<path fill="none" stroke="black" d="M58,-276.84C58,-265.44 58,-250.13 58,-236.58"/>
<polygon fill="black" stroke="black" points="61.5,-236.19 58,-226.19 54.5,-236.19 61.5,-236.19"/>
<text text-anchor="middle" x="75" y="-247.8" font-family="Times,serif" font-size="14.00">True</text>
</g>
<!-- 1&#45;&gt;1 -->
<g id="edge7" class="edge">
<title>1&#45;&gt;1</title>
<path fill="none" stroke="black" d="M78.58,-212.37C88.84,-213.53 98,-210.74 98,-204 98,-199.68 94.24,-196.99 88.84,-195.91"/>
<polygon fill="black" stroke="black" points="88.67,-192.41 78.58,-195.63 88.48,-199.4 88.67,-192.41"/>
<text text-anchor="middle" x="131.5" y="-200.3" font-family="Times,serif" font-size="14.00">~E &amp; ~F</text>
</g>
<!-- 2 -->
<g id="node4" class="node">
<title>2</title>
<ellipse fill="none" stroke="black" cx="22" cy="-22" rx="18" ry="18"/>
<ellipse fill="none" stroke="black" cx="22" cy="-22" rx="22" ry="22"/>
<text text-anchor="middle" x="22" y="-18.3" font-family="Times,serif" font-size="14.00">2</text>
</g>
<!-- 1&#45;&gt;2 -->
<g id="edge8" class="edge">
<title>1&#45;&gt;2</title>
<path fill="none" stroke="black" d="M44.56,-186.46C34.21,-172.59 20.73,-151.77 15,-131 8,-105.63 10.76,-75.69 14.69,-53.77"/>
<polygon fill="black" stroke="black" points="18.17,-54.2 16.67,-43.71 11.3,-52.85 18.17,-54.2"/>
<text text-anchor="middle" x="80.5" y="-109.3" font-family="Times,serif" font-size="14.00">(E &amp; F) | (F &amp; ~E)</text>
</g>
<!-- 3 -->
<g id="node5" class="node">
<title>3</title>
<ellipse fill="none" stroke="black" cx="182" cy="-113" rx="27" ry="18"/>
<text text-anchor="middle" x="182" y="-109.3" font-family="Times,serif" font-size="14.00">3</text>
</g>
<!-- 1&#45;&gt;3 -->
<g id="edge3" class="edge">
<title>1&#45;&gt;3</title>
<path fill="none" stroke="black" d="M75.5,-190.44C96.43,-175.42 131.66,-150.13 155.83,-132.79"/>
<polygon fill="black" stroke="black" points="158.1,-135.46 164.18,-126.79 154.02,-129.77 158.1,-135.46"/>
<text text-anchor="middle" x="158.5" y="-152.8" font-family="Times,serif" font-size="14.00">E &amp; ~F</text>
</g>
<!-- 2&#45;&gt;2 -->
<g id="edge4" class="edge">
<title>2&#45;&gt;2</title>
<path fill="none" stroke="black" d="M42.58,-30.37C52.84,-31.53 62,-28.74 62,-22 62,-17.68 58.24,-14.99 52.84,-13.91"/>
<polygon fill="black" stroke="black" points="52.67,-10.41 42.58,-13.63 52.48,-17.4 52.67,-10.41"/>
<text text-anchor="middle" x="79" y="-18.3" font-family="Times,serif" font-size="14.00">True</text>
</g>
<!-- 3&#45;&gt;2 -->
<g id="edge6" class="edge">
<title>3&#45;&gt;2</title>
<path fill="none" stroke="black" d="M161.74,-100.73C133.42,-84.98 81.9,-56.32 49.95,-38.55"/>
<polygon fill="black" stroke="black" points="51.54,-35.43 41.1,-33.63 48.14,-41.55 51.54,-35.43"/>
<text text-anchor="middle" x="121" y="-65.8" font-family="Times,serif" font-size="14.00">F</text>
</g>
<!-- 3&#45;&gt;3 -->
<g id="edge5" class="edge">
<title>3&#45;&gt;3</title>
<path fill="none" stroke="black" d="M206.53,-120.75C217.51,-121.49 227,-118.91 227,-113 227,-109.03 222.72,-106.56 216.57,-105.59"/>
<polygon fill="black" stroke="black" points="216.65,-102.09 206.53,-105.25 216.41,-109.09 216.65,-102.09"/>
<text text-anchor="middle" x="238" y="-109.3" font-family="Times,serif" font-size="14.00">~F</text>
</g>
</g>
</svg>
