<?xml version="1.0" encoding="UTF-8" standalone="no"?>
<!DOCTYPE svg PUBLIC "-//W3C//DTD SVG 1.1//EN"
 "http://www.w3.org/Graphics/SVG/1.1/DTD/svg11.dtd">
<!-- Generated by graphviz version 2.43.0 (0)
 -->
<!-- Title: %3 Pages: 1 -->
<svg width="179pt" height="299pt"
 viewBox="0.00 0.00 178.75 299.00" xmlns="http://www.w3.org/2000/svg" xmlns:xlink="http://www.w3.org/1999/xlink">
<g id="graph0" class="graph" transform="scale(1 1) rotate(0) translate(4 295)">
<title>%3</title>
<polygon fill="white" stroke="transparent" points="-4,4 -4,-295 174.75,-295 174.75,4 -4,4"/>
<!-- fake -->
<g id="node1" class="node">
<title>fake</title>
</g>
<!-- 0 -->
<g id="node2" class="node">
<title>0</title>
<ellipse fill="none" stroke="black" cx="42.75" cy="-200" rx="27" ry="18"/>
<text text-anchor="middle" x="42.75" y="-196.3" font-family="Times,serif" font-size="14.00">0</text>
</g>
<!-- fake&#45;&gt;0 -->
<g id="edge1" class="edge">
<title>fake&#45;&gt;0</title>
<path fill="none" stroke="black" stroke-width="2" d="M42.75,-254.81C42.75,-246.79 42.75,-237.05 42.75,-228.07"/>
<polygon fill="black" stroke="black" stroke-width="2" points="46.25,-228.03 42.75,-218.03 39.25,-228.03 46.25,-228.03"/>
</g>
<!-- 1 -->
<g id="node3" class="node">
<title>1</title>
<ellipse fill="none" stroke="black" cx="42.75" cy="-109" rx="18" ry="18"/>
<ellipse fill="none" stroke="black" cx="42.75" cy="-109" rx="22" ry="22"/>
<text text-anchor="middle" x="42.75" y="-105.3" font-family="Times,serif" font-size="14.00">1</text>
</g>
<!-- 0&#45;&gt;1 -->
<g id="edge2" class="edge">
<title>0&#45;&gt;1</title>
<path fill="none" stroke="black" d="M42.75,-181.84C42.75,-170.44 42.75,-155.13 42.75,-141.58"/>
<polygon fill="black" stroke="black" points="46.25,-141.19 42.75,-131.19 39.25,-141.19 46.25,-141.19"/>
<text text-anchor="middle" x="59.75" y="-152.8" font-family="Times,serif" font-size="14.00">True</text>
</g>
<!-- 1&#45;&gt;1 -->
<g id="edge6" class="edge">
<title>1&#45;&gt;1</title>
<path fill="none" stroke="black" d="M63.33,-117.37C73.6,-118.53 82.75,-115.74 82.75,-109 82.75,-104.68 79,-101.99 73.6,-100.91"/>
<polygon fill="black" stroke="black" points="73.43,-97.41 63.33,-100.63 73.23,-104.4 73.43,-97.41"/>
<text text-anchor="middle" x="126.75" y="-105.3" font-family="Times,serif" font-size="14.00">~K | (K &amp; L)</text>
</g>
<!-- 2 -->
<g id="node4" class="node">
<title>2</title>
<ellipse fill="none" stroke="black" cx="42.75" cy="-18" rx="27" ry="18"/>
<text text-anchor="middle" x="42.75" y="-14.3" font-family="Times,serif" font-size="14.00">2</text>
</g>
<!-- 1&#45;&gt;2 -->
<g id="edge5" class="edge">
<title>1&#45;&gt;2</title>
<path fill="none" stroke="black" d="M24.7,-96.18C16.01,-89.39 6.48,-80.01 1.75,-69 -3.4,-57 4.6,-45.58 14.86,-36.69"/>
<polygon fill="black" stroke="black" points="17.2,-39.31 22.97,-30.42 12.92,-33.77 17.2,-39.31"/>
<text text-anchor="middle" x="28.75" y="-57.8" font-family="Times,serif" font-size="14.00">K &amp; ~L</text>
</g>
<!-- 2&#45;&gt;1 -->
<g id="edge4" class="edge">
<title>2&#45;&gt;1</title>
<path fill="none" stroke="black" d="M52.49,-35.17C55.43,-40.91 58.27,-47.55 59.75,-54 61.75,-62.67 60.2,-71.97 57.38,-80.36"/>
<polygon fill="black" stroke="black" points="54.1,-79.12 53.6,-89.7 60.59,-81.74 54.1,-79.12"/>
<text text-anchor="middle" x="64.75" y="-57.8" font-family="Times,serif" font-size="14.00">L</text>
</g>
<!-- 2&#45;&gt;2 -->
<g id="edge3" class="edge">
<title>2&#45;&gt;2</title>
<path fill="none" stroke="black" d="M67.28,-25.75C78.26,-26.49 87.75,-23.91 87.75,-18 87.75,-14.03 83.47,-11.56 77.33,-10.59"/>
<polygon fill="black" stroke="black" points="77.4,-7.09 67.28,-10.25 77.16,-14.09 77.4,-7.09"/>
<text text-anchor="middle" x="98.75" y="-14.3" font-family="Times,serif" font-size="14.00">~L</text>
</g>
</g>
</svg>
