<?xml version="1.0" encoding="UTF-8" standalone="no"?>
<!DOCTYPE svg PUBLIC "-//W3C//DTD SVG 1.1//EN"
 "http://www.w3.org/Graphics/SVG/1.1/DTD/svg11.dtd">
<!-- Generated by graphviz version 2.43.0 (0)
 -->
<!-- Title: %3 Pages: 1 -->
<svg width="175pt" height="299pt"
 viewBox="0.00 0.00 174.54 299.00" xmlns="http://www.w3.org/2000/svg" xmlns:xlink="http://www.w3.org/1999/xlink">
<g id="graph0" class="graph" transform="scale(1 1) rotate(0) translate(4 295)">
<title>%3</title>
<polygon fill="white" stroke="transparent" points="-4,4 -4,-295 170.54,-295 170.54,4 -4,4"/>
<!-- fake -->
<g id="node1" class="node">
<title>fake</title>
</g>
<!-- 0 -->
<g id="node2" class="node">
<title>0</title>
<ellipse fill="none" stroke="black" cx="38.54" cy="-200" rx="27" ry="18"/>
<text text-anchor="middle" x="38.54" y="-196.3" font-family="Times,serif" font-size="14.00">0</text>
</g>
<!-- fake&#45;&gt;0 -->
<g id="edge1" class="edge">
<title>fake&#45;&gt;0</title>
<path fill="none" stroke="black" stroke-width="2" d="M38.54,-254.81C38.54,-246.79 38.54,-237.05 38.54,-228.07"/>
<polygon fill="black" stroke="black" stroke-width="2" points="42.04,-228.03 38.54,-218.03 35.04,-228.03 42.04,-228.03"/>
</g>
<!-- 1 -->
<g id="node3" class="node">
<title>1</title>
<ellipse fill="none" stroke="black" cx="38.54" cy="-109" rx="18" ry="18"/>
<ellipse fill="none" stroke="black" cx="38.54" cy="-109" rx="22" ry="22"/>
<text text-anchor="middle" x="38.54" y="-105.3" font-family="Times,serif" font-size="14.00">1</text>
</g>
<!-- 0&#45;&gt;1 -->
<g id="edge4" class="edge">
<title>0&#45;&gt;1</title>
<path fill="none" stroke="black" d="M38.54,-181.84C38.54,-170.44 38.54,-155.13 38.54,-141.58"/>
<polygon fill="black" stroke="black" points="42.04,-141.19 38.54,-131.19 35.04,-141.19 42.04,-141.19"/>
<text text-anchor="middle" x="55.54" y="-152.8" font-family="Times,serif" font-size="14.00">True</text>
</g>
<!-- 1&#45;&gt;1 -->
<g id="edge5" class="edge">
<title>1&#45;&gt;1</title>
<path fill="none" stroke="black" d="M59.13,-117.37C69.39,-118.53 78.54,-115.74 78.54,-109 78.54,-104.68 74.79,-101.99 69.39,-100.91"/>
<polygon fill="black" stroke="black" points="69.22,-97.41 59.13,-100.63 69.03,-104.4 69.22,-97.41"/>
<text text-anchor="middle" x="122.54" y="-105.3" font-family="Times,serif" font-size="14.00">~K | (K &amp; L)</text>
</g>
<!-- 2 -->
<g id="node4" class="node">
<title>2</title>
<ellipse fill="none" stroke="black" cx="38.54" cy="-18" rx="27" ry="18"/>
<text text-anchor="middle" x="38.54" y="-14.3" font-family="Times,serif" font-size="14.00">2</text>
</g>
<!-- 1&#45;&gt;2 -->
<g id="edge3" class="edge">
<title>1&#45;&gt;2</title>
<path fill="none" stroke="black" d="M21.44,-95.14C13.8,-88.31 5.62,-79.23 1.54,-69 -2.89,-57.87 3.46,-47 12.09,-38.25"/>
<polygon fill="black" stroke="black" points="14.58,-40.72 19.69,-31.44 9.91,-35.51 14.58,-40.72"/>
<text text-anchor="middle" x="28.54" y="-57.8" font-family="Times,serif" font-size="14.00">K &amp; ~L</text>
</g>
<!-- 2&#45;&gt;1 -->
<g id="edge6" class="edge">
<title>2&#45;&gt;1</title>
<path fill="none" stroke="black" d="M48.28,-35.17C51.22,-40.91 54.06,-47.55 55.54,-54 57.54,-62.67 56,-71.97 53.17,-80.36"/>
<polygon fill="black" stroke="black" points="49.89,-79.12 49.39,-89.7 56.38,-81.74 49.89,-79.12"/>
<text text-anchor="middle" x="60.54" y="-57.8" font-family="Times,serif" font-size="14.00">L</text>
</g>
<!-- 2&#45;&gt;2 -->
<g id="edge2" class="edge">
<title>2&#45;&gt;2</title>
<path fill="none" stroke="black" d="M63.08,-25.75C74.05,-26.49 83.54,-23.91 83.54,-18 83.54,-14.03 79.26,-11.56 73.12,-10.59"/>
<polygon fill="black" stroke="black" points="73.19,-7.09 63.08,-10.25 72.95,-14.09 73.19,-7.09"/>
<text text-anchor="middle" x="94.54" y="-14.3" font-family="Times,serif" font-size="14.00">~L</text>
</g>
</g>
</svg>
